<?xml version="1.0" encoding="UTF-8"?>
<svg width="20840px" height="3778px" viewBox="0 0 20840 3778" version="1.1" xmlns="http://www.w3.org/2000/svg" xmlns:xlink="http://www.w3.org/1999/xlink">
    <!-- Generator: Sketch 53.1 (72631) - https://sketchapp.com -->
    <title>Group 13</title>
    <desc>Created with Sketch.</desc>
    <defs>
        <rect id="path-1" x="0" y="0" width="1074" height="1316"></rect>
    </defs>
    <g id="Page-18" stroke="none" stroke-width="1" fill="none" fill-rule="evenodd">
        <g id="Group-13" transform="translate(0.500000, 0.789224)">
            <path d="M6057.34862,3008.87266 C6178.67704,3008.87266 6287.21676,2987.75945 6382.97105,2945.5324 C6478.72534,2903.30536 6559.90711,2844.72364 6626.51879,2769.7855 C6693.13047,2694.84736 6743.98058,2606.52874 6779.07067,2504.82698 C6814.16075,2403.12522 6831.70552,2293.39601 6831.70552,2175.63608 L6831.70552,614.432644 L7013.69724,614.432644 L7013.69724,2175.63608 C7013.69724,2314.80691 6991.69192,2444.75721 6947.68064,2565.49088 C6903.66935,2686.22455 6840.32973,2791.49322 6757.65988,2881.30003 C6674.99002,2971.10685 6574.47926,3041.58333 6456.12458,3092.73159 C6337.7699,3143.87984 6204.84591,3169.45358 6057.34862,3169.45358 C5909.85133,3169.45358 5776.92734,3143.87984 5658.57266,3092.73159 C5540.21798,3041.58333 5439.70722,2971.10685 5357.03736,2881.30003 C5274.36751,2791.49322 5211.02789,2686.22455 5167.0166,2565.49088 C5123.00531,2444.75721 5101,2314.80691 5101,2175.63608 L5101,614.432644 L5284.77595,614.432644 L5284.77595,2173.85185 C5284.77595,2291.61178 5302.32072,2401.34098 5337.41081,2503.04274 C5372.50089,2604.74451 5423.05364,2693.06313 5489.07057,2768.00127 C5555.0875,2842.93941 5635.9719,2901.81849 5731.72619,2944.64029 C5827.48048,2987.46208 5936.0202,3008.87266 6057.34862,3008.87266 Z M7922.96514,614.432644 C7939.61806,614.432644 7952.7023,616.514228 7962.21826,620.677458 C7971.73421,624.840688 7981.84476,634.05913 7992.55021,648.333062 L9626.90718,2835.80211 C9623.3387,2800.11728 9621.55448,2765.62246 9621.55448,2732.31662 L9621.55448,614.432644 L9782.13541,614.432644 L9782.13541,3139.12163 L9694.70801,3139.12163 C9667.34965,3139.12163 9645.34433,3127.22687 9628.69141,3103.43698 L7987.19751,912.399472 C7990.766,948.0843 7992.55021,981.984378 7992.55021,1014.10072 L7992.55021,3139.12163 L7833.75352,3139.12163 L7833.75352,614.432644 L7922.96514,614.432644 Z M11556.7561,3008.87266 C11678.0845,3008.87266 11786.6242,2987.75945 11882.3785,2945.5324 C11978.1328,2903.30536 12059.3146,2844.72364 12125.9262,2769.7855 C12192.5379,2694.84736 12243.388,2606.52874 12278.4781,2504.82698 C12313.5682,2403.12522 12331.113,2293.39601 12331.113,2175.63608 L12331.113,614.432644 L12513.1047,614.432644 L12513.1047,2175.63608 C12513.1047,2314.80691 12491.0994,2444.75721 12447.0881,2565.49088 C12403.0768,2686.22455 12339.7372,2791.49322 12257.0673,2881.30003 C12174.3975,2971.10685 12073.8867,3041.58333 11955.532,3092.73159 C11837.1774,3143.87984 11704.2534,3169.45358 11556.7561,3169.45358 C11409.2588,3169.45358 11276.3348,3143.87984 11157.9801,3092.73159 C11039.6254,3041.58333 10939.1147,2971.10685 10856.4448,2881.30003 C10773.775,2791.49322 10710.4353,2686.22455 10666.4241,2565.49088 C10622.4128,2444.75721 10600.4075,2314.80691 10600.4075,2175.63608 L10600.4075,614.432644 L10784.1834,614.432644 L10784.1834,2173.85185 C10784.1834,2291.61178 10801.7282,2401.34098 10836.8183,2503.04274 C10871.9083,2604.74451 10922.4611,2693.06313 10988.478,2768.00127 C11054.495,2842.93941 11135.3794,2901.81849 11231.1336,2944.64029 C11326.8879,2987.46208 11435.4277,3008.87266 11556.7561,3008.87266 Z M14546.4391,2404.01784 C14564.2815,2437.32368 14579.7447,2473.00797 14592.8291,2511.07179 C14599.9661,2492.03988 14607.4003,2473.30563 14615.132,2454.86847 C14622.8637,2436.43131 14631.4874,2418.88653 14641.0034,2402.23361 L15633.0367,648.333062 C15642.5526,632.869636 15652.0684,623.353825 15661.5844,619.785342 C15671.1003,616.216859 15684.1846,614.432644 15700.8375,614.432644 L15827.518,614.432644 L15827.518,3139.12163 L15666.9371,3139.12163 L15666.9371,987.337236 C15666.9371,956.410385 15668.7213,923.699783 15672.2898,889.204449 L14678.4723,2653.81039 C14661.8194,2684.73724 14638.0298,2700.20044 14607.103,2700.20044 L14578.5553,2700.20044 C14548.8179,2700.20044 14525.0284,2684.73724 14507.186,2653.81039 L13486.605,887.420217 C13490.1734,921.915551 13491.9577,955.220891 13491.9577,987.337236 L13491.9577,3139.12163 L13333.161,3139.12163 L13333.161,614.432644 L13458.0572,614.432644 C13474.7102,614.432644 13488.0918,616.216859 13498.2025,619.785342 C13508.3132,623.353825 13518.1264,632.869636 13527.6423,648.333062 L14546.4391,2404.01784 Z M17876.2198,3139.12163 L17394.477,3139.12163 L17394.477,559.121437 L17876.2198,559.121437 L17876.2198,3139.12163 Z M20839.1393,1849.12153 C20839.1393,2038.25112 20807.6182,2211.91468 20744.575,2370.11742 C20681.5318,2528.32016 20592.9158,2664.51521 20478.7243,2778.70667 C20364.5329,2892.89812 20227.1484,2981.51411 20066.5666,3044.55731 C19905.9849,3107.6005 19728.1582,3139.12163 19533.0811,3139.12163 L18548.1848,3139.12163 L18548.1848,559.121437 L19533.0811,559.121437 C19728.1582,559.121437 19905.9849,590.939931 20066.5666,654.577875 C20227.1484,718.215819 20364.5329,806.831814 20478.7243,920.428518 C20592.9158,1034.02522 20681.5318,1169.9229 20744.575,1328.12564 C20807.6182,1486.32838 20839.1393,1659.99194 20839.1393,1849.12153 Z M20348.4754,1849.12153 C20348.4754,1707.57171 20329.4438,1580.5951 20291.3799,1468.18789 C20253.3161,1355.78069 20199.1949,1260.62257 20129.0148,1182.7107 C20058.8346,1104.79882 19973.4897,1045.02763 19872.9774,1003.39533 C19772.4651,961.763029 19659.1675,940.947191 19533.0811,940.947191 L19031.7118,940.947191 L19031.7118,2757.29588 L19533.0811,2757.29588 C19659.1675,2757.29588 19772.4651,2736.48004 19872.9774,2694.84774 C19973.4897,2653.21544 20058.8346,2593.44425 20129.0148,2515.53237 C20199.1949,2437.6205 20253.3161,2342.46238 20291.3799,2230.05517 C20329.4438,2117.64796 20348.4754,1990.67135 20348.4754,1849.12153 Z" id="UNUMID-Copy-22" fill="#FFFFFF" fill-rule="nonzero"></path>
            <g id="Group-3-Copy-4">
                <g id="Shape-Copy" transform="translate(1077.663017, 1551.000000)">
                    <mask id="mask-2" fill="white">
                        <use xlink:href="#path-1"></use>
                    </mask>
                    <g id="Mask"></g>
                    <path d="M927.953511,2052.59667 C902.974939,2068.61032 877.304365,2083.63888 850.996615,2097.62753 C504.379284,1913.32026 268.371351,1548.49184 268.371351,1128.54082 C268.371351,832.787089 385.426304,564.373003 575.734886,367.099893 C581.526372,396.682137 588.473574,425.850458 596.527556,454.555909 L596.52752,454.555949 C288.116587,805.652702 252.114656,1335.38397 538.323122,1729.31613 C642.814265,1873.13585 777.791397,1981.70385 927.953511,2052.59667 L927.953511,2052.59667 Z M961.49395,2067.69833 C1281.59599,2204.94511 1663.76266,2175.02152 1965.9947,1955.43709 C2422.6769,1623.63805 2523.9147,984.447717 2192.11566,527.765518 C2081.51632,375.53858 1936.76259,262.805223 1775.99874,192.439218 C1790.47546,171.765753 1804.27683,150.584664 1817.37081,128.927973 C2197.57883,301.178169 2462.06743,683.972184 2462.06743,1128.54082 C2462.06743,1734.31327 1970.99184,2225.38887 1365.21939,2225.38887 C1192.82229,2225.38887 1029.71469,2185.61578 884.571935,2114.74496 C910.878562,2100.0669 936.537139,2084.36678 961.49395,2067.69833 L961.49395,2067.69833 Z M621.070476,427.606692 C613.637933,399.037709 607.328151,370.015748 602.191063,340.590742 C799.610479,149.377124 1068.67161,31.692783 1365.21939,31.692783 C1515.07476,31.692783 1657.9111,61.7448207 1788.03052,116.151014 C1774.76126,137.908248 1760.75559,159.167174 1746.04815,179.893157 C1430.74573,53.6639182 1059.50239,87.2721513 764.444085,301.644554 C711.909946,339.812841 664.079367,382.048806 621.070463,427.606707 L621.070476,427.606692 Z" id="Shape" fill="#FFFFFF" mask="url(#mask-2)"></path>
                </g>
                <path d="M1928.58182,986.571514 C1945.07891,1005.74237 1960.92452,1025.48989 1976.0843,1045.77971 C1842.4709,1205.29843 1763.38591,1399.39355 1743.26864,1600.03634 C1719.20953,1592.68804 1694.80901,1586.12198 1670.09673,1580.36779 C1669.52048,1585.60658 1668.98112,1590.85648 1668.47891,1596.11722 L1668.47891,1596.11725 C1665.16347,1630.84758 1663.46756,1666.0504 1663.46756,1701.64932 C1663.46756,1874.30459 1703.35986,2037.64252 1774.43007,2182.94873 C1803.68971,2187.0641 1833.31993,2190.02501 1863.27321,2191.78392 C1767.15073,2016.38596 1727.49272,1821.93505 1740.56735,1631.99291 C1716.41997,1624.48328 1691.91489,1617.78559 1667.08404,1611.93177 L1667.08404,1611.93175 C1667.51166,1606.64959 1667.97671,1601.378 1668.47891,1596.11725 C1690.60698,1364.31816 1784.87792,1153.56628 1928.58182,986.571514 Z M1950.51785,961.839606 C2151.07846,742.427838 2439.62483,604.801277 2760.31561,604.801277 C3366.08805,604.801277 3857.16365,1095.87687 3857.16365,1701.64932 C3857.16365,1997.4996 3740.03225,2265.99239 3549.61371,2463.28343 L3549.61364,2463.2835 C3543.86106,2433.66706 3536.94939,2404.46448 3528.92778,2375.72491 C3515.67022,2390.81377 3501.90946,2405.57259 3487.64944,2419.9764 L3487.64944,2522.67807 C3294.0689,2694.2945 3039.3612,2798.49736 2760.31561,2798.49736 C2340.90684,2798.49736 1976.47842,2563.09851 1791.94375,2217.21423 C1821.6125,2220.79487 1851.63575,2223.22434 1881.96752,2224.45666 C1897.78215,2250.95628 1914.92828,2276.97387 1933.41934,2302.42462 C2265.21838,2759.10682 2904.40871,2860.34463 3361.09091,2528.54559 C3817.77311,2196.74655 3919.01092,1557.55621 3587.21188,1100.87401 C3255.41284,644.191812 2616.2225,542.954009 2159.5403,874.753048 C2099.47729,918.391381 2045.56261,967.346848 1997.9728,1020.50493 C1982.8001,1000.41584 1966.97115,980.850104 1950.51784,961.839612 Z" id="Combined-Shape-Copy-857" fill="#FFFFFF"></path>
                <path d="M1352.62861,2800.50439 C1377.29231,2794.78624 1401.64595,2788.25914 1425.66007,2780.95255 C1442.90444,2955.58942 1505.38863,3128.09172 1615.98614,3280.31613 C1720.47728,3424.13585 1855.45441,3532.70385 2005.61653,3603.59667 C1980.63796,3619.61032 1954.96738,3634.63888 1928.65963,3648.62753 C1615.78544,3482.26254 1393.03328,3168.81302 1352.62861,2800.50443 Z M2220.76194,1605.1958 C2292.49461,1590.44251 2366.78349,1582.69278 2442.88241,1582.69278 C2592.73778,1582.69278 2735.57411,1612.74482 2865.69354,1667.15101 C2852.42427,1688.90825 2838.4186,1710.16717 2823.71117,1730.89316 C2634.63908,1655.1994 2425.45155,1636.98062 2224.63829,1680.74915 C2224.17678,1655.35075 2222.8758,1630.15747 2220.76194,1605.1958 Z M2039.15697,3618.69833 C2359.259,3755.94511 2741.42568,3726.02152 3043.65772,3506.43709 C3500.33991,3174.63805 3601.57772,2535.44772 3269.77868,2078.76552 C3159.17933,1926.53858 3014.42561,1813.80522 2853.66176,1743.43922 C2868.13848,1722.76575 2881.93984,1701.58466 2895.03383,1679.92797 C3275.24184,1852.17817 3539.73045,2234.97218 3539.73045,2679.54082 C3539.73045,3285.31327 3048.65485,3776.38887 2442.88241,3776.38887 C2270.48531,3776.38887 2107.37771,3736.61578 1962.23495,3665.74496 C1988.54158,3651.0669 2014.20016,3635.36678 2039.15697,3618.69833 Z" id="Combined-Shape-Copy-858" fill="#FFFFFF"></path>
                <path d="M1746.99174,1831.67188 C1753.36763,1881.89139 1763.38761,1930.97383 1776.77829,1978.64581 C1755.74725,1998.58256 1735.77907,2019.30661 1716.88645,2040.73771 C1701.19105,1992.40694 1688.76019,1942.60455 1679.85408,1891.59074 C1701.39917,1870.72291 1723.79752,1850.73083 1746.99174,1831.67188 Z" id="Combined-Shape-Copy-859" fill="#FFFFFF"></path>
                <path d="M400.668484,2549.2808 C377.624907,2530.33254 355.367579,2510.46294 333.952828,2489.72834 C423.852627,1974.4221 873.398099,1582.69278 1414.43686,1582.69278 C1586.8493,1582.69278 1749.9706,1622.47295 1895.12308,1693.35562 C1881.9707,1700.69472 1868.98033,1708.2893 1856.15868,1716.13265 C1843.33702,1723.976 1830.68408,1732.06812 1818.20657,1740.4023 C1498.0955,1603.13378 1115.90752,1633.05001 813.661549,1852.64455 C576.609872,2024.87268 435.328212,2279.92352 400.668484,2549.2808 Z M396.687754,2585.19024 C374.472249,2823.80891 435.606507,3071.19681 587.540586,3280.31613 C919.339626,3736.99833 1558.52996,3838.23613 2015.21216,3506.43709 C2261.05166,3327.82425 2403.88888,3060.13417 2431.61973,2779.78908 C2455.68572,2787.11883 2480.09273,2793.66606 2504.81113,2799.40113 C2445.10264,3348.78733 1979.70559,3776.38887 1414.43686,3776.38887 C808.66441,3776.38887 317.588815,3285.31327 317.588815,2679.54082 C317.588815,2627.55666 321.205172,2576.41715 328.200034,2526.36013 C350.226858,2546.85853 373.074337,2566.4868 396.687754,2585.19024 Z M1928.65963,1710.45412 C2102.85268,1803.07801 2249.11043,1941.29394 2351.5169,2109.18592 C2328.13201,2118.96722 2304.33621,2127.96178 2280.16265,2136.13661 L2280.16263,2136.13657 C2267.95165,2116.72565 2255.01029,2097.59052 2241.33313,2078.76552 C2136.84198,1934.9458 2001.86485,1826.3778 1851.70274,1755.48497 C1876.68131,1739.47133 1902.35188,1724.44277 1928.65963,1710.45412 Z M2297.01776,2163.89186 C2320.98188,2155.61884 2344.58028,2146.56128 2367.78226,2136.74988 L2367.78242,2136.74981 C2459.10532,2296.8021 2511.2849,2482.07787 2511.2849,2679.54082 C2511.2849,2710.18746 2510.02801,2740.54054 2507.56298,2770.55132 L2507.56294,2770.55131 C2507.59833,2770.1204 2507.63348,2769.68941 2507.66837,2769.25836 C2482.83754,2763.40455 2458.33247,2756.70686 2434.18512,2749.19723 C2447.89716,2549.99505 2403.60959,2345.83376 2297.01775,2163.89185 L2297.01776,2163.89186 Z" id="Combined-Shape-Copy-860" fill="#FFFFFF"></path>
                <path d="M2380.91966,2650.78533 C2423.03576,2667.66159 2466.53629,2681.81587 2511.20365,2693.03057 C2510.89475,2718.66096 2509.70676,2744.07981 2507.66842,2769.25837 L2507.66837,2769.25836 C2464.02438,2758.96939 2421.3868,2746.0734 2379.92904,2730.7438 C2381.35561,2704.14693 2381.68962,2677.4701 2380.91969,2650.78534 Z" id="Combined-Shape-Copy-861" fill="#FFFFFF"></path>
                <path d="M2006.14791,1755.82567 C1960.85196,1777.34662 1917.38999,1802.10116 1876.06033,1829.79098 C1850.63618,1816.00235 1824.67306,1803.40452 1798.26029,1792.0116 L1798.2603,1792.01159 C1839.63518,1761.90873 1883.19595,1734.62858 1928.65963,1710.45412 C1955.15391,1724.54196 1981.00195,1739.6845 2006.14774,1755.82575 Z" id="Combined-Shape-Copy-862" fill="#FFFFFF"></path>
                <path d="M1381.56932,2761.18096 L1381.56932,2683.58175 C1492.13396,2651.52891 1599.1238,2600.1097 1697.62335,2528.54559 C1758.37906,2484.40398 1812.8438,2434.82189 1860.83487,2380.95283 C1876.0402,2401.02035 1891.90122,2420.56362 1908.38603,2439.55075 C1769.18735,2592.55059 1587.31101,2706.03143 1381.56932,2761.18096 Z M110.987627,2183.00008 C39.9016928,2037.681 2.20975398e-11,1874.32493 2.20552465e-11,1701.64932 C2.19229317e-11,1161.43308 390.539157,712.432157 904.686209,621.577798 C892.056604,648.740316 880.476053,676.489343 869.996614,704.772818 C738.958497,734.526899 611.668913,790.767509 496.072735,874.753048 C77.9933294,1178.50552 -42.1925586,1739.8788 195.047489,2183 L110.987588,2183 Z M942.69629,615.548634 C993.062936,608.464562 1044.52769,604.801277 1096.84804,604.801277 C1702.62049,604.801277 2193.69608,1095.87687 2193.69608,1701.64932 C2193.69608,1753.50482 2190.0976,1804.51985 2183.13674,1854.45832 C2161.11317,1833.89654 2138.26558,1814.20615 2114.64892,1795.44208 C2136.71732,1556.99572 2075.56,1309.83038 1923.74431,1100.87401 C1683.78438,770.597505 1283.04936,626.229336 906.848772,697.11965 C917.717303,669.360502 929.68424,642.152348 942.69629,615.548634 Z M1881.07935,2357.51893 C2008.32322,2205.60468 2086.11364,2022.33206 2110.61641,1831.90935 C2133.65999,1850.8576 2155.91732,1870.7272 2177.33207,1891.4618 C2142.6938,2090.00859 2054.66432,2270.20976 1928.58182,2416.72712 C1912.08474,2397.55627 1896.23913,2377.80876 1881.07935,2357.51893 Z" id="Combined-Shape-Copy-863" fill="#FFFFFF"></path>
                <path d="M1334.73269,2772.6305 C1258.13803,2789.56751 1178.53588,2798.49736 1096.84804,2798.49736 C491.075595,2798.49736 -4.20062731e-13,2307.42176 -5.68434189e-13,1701.64932 C-7.00749005e-13,1161.43308 390.539157,712.432157 904.686209,621.577798 C892.056604,648.740316 880.476053,676.489343 869.996614,704.772818 C738.958497,734.526899 611.668913,790.767509 496.072735,874.753048 C39.3905352,1206.55209 -61.8472685,1845.74243 269.951771,2302.42462 C516.094816,2641.21146 931.405175,2784.38582 1315.87628,2700.26977 C1316.33384,2725.67207 1317.63069,2750.86945 1319.74029,2775.83535 L1319.74029,2775.83532 C1324.75033,2774.80113 1329.74789,2773.73277 1334.73271,2772.6305 Z" id="Combined-Shape-Copy-864" fill="#FFFFFF"></path>
                <path d="M1895.90762,2246.39617 C1920.32294,2285.08343 1947.262,2322.0187 1976.49357,2356.97078 C1961.20978,2377.45313 1945.22743,2397.38368 1928.58182,2416.72712 C1899.6521,2383.1086 1872.72577,2347.7167 1847.98814,2310.73672 C1864.93279,2289.8674 1880.90954,2268.39791 1895.90763,2246.3962 Z" id="Combined-Shape-Copy-865" fill="#FFFFFF"></path>
                <path d="M1424.36786,2611.568 C1422.89272,2634.03514 1422.14354,2656.70049 1422.14354,2679.54082 C1422.14354,2702.79638 1422.92021,2725.87054 1424.44903,2748.73877 C1399.87565,2756.41906 1374.93071,2763.25816 1349.64793,2769.22236 L1349.64793,2769.22238 C1347.25443,2739.64456 1346.03437,2709.73517 1346.03437,2679.54082 C1346.03437,2664.90649 1346.32097,2650.3391 1346.88886,2635.84395 C1372.92935,2628.88005 1398.77934,2620.79181 1424.36786,2611.568 Z" id="Combined-Shape-Copy-866" fill="#FFFFFF"></path>
                <path d="M2158.13045,1979.75762 C2123.79072,1943.2141 2086.7926,1909.19771 2047.44491,1878.01727 C2052.70619,1849.63384 2056.70296,1821.02237 2059.42065,1792.27485 C2101.03384,1822.57697 2140.4337,1855.73535 2177.33206,1891.46183 C2172.12197,1921.3261 2165.70393,1950.77532 2158.13014,1979.75729 Z" id="Combined-Shape-Copy-867" fill="#FFFFFF"></path>
                <path d="M1505.77069,2109.23785 C1519.03996,2087.48062 1533.04563,2066.22169 1547.75306,2045.49571 C1727.97702,2117.64718 1926.47778,2137.57718 2118.58109,2101.37771 C2107.71256,2129.13686 2095.74562,2156.34501 2082.73357,2182.94873 C2032.36693,2190.0328 1980.90218,2193.69608 1928.58182,2193.69608 C1778.72646,2193.69608 1635.89012,2163.64404 1505.77069,2109.23785 Z M1477.4993,2096.94445 C1275.48081,2005.68329 1106.05557,1855.01005 991.501784,1667.20295 L991.501733,1667.20287 C1014.88667,1657.42165 1038.68247,1648.42709 1062.85603,1640.25225 C1075.06701,1659.66319 1088.00838,1678.79833 1101.68555,1697.62335 C1212.52387,1850.1792 1357.66432,1963.07063 1518.84479,2033.40518 C1504.37657,2054.08812 1490.58407,2075.27857 1477.49933,2096.94447 Z M2119.9206,2177.06468 C2132.606,2149.90552 2144.24176,2122.15777 2154.77571,2093.87362 C2286.04544,2064.15856 2413.56756,2007.87035 2529.35713,1923.74431 C2950.20396,1617.98119 3069.20048,1051.17538 2825.62422,606.71344 C2855.5775,608.472352 2885.20773,611.433265 2914.46736,615.548634 C2985.53757,760.854844 3025.42986,924.192771 3025.42986,1096.84804 C3025.42986,1637.3525 2634.47386,2086.54429 2119.9206,2177.06468 Z M2805.9224,572.356132 C2790.38775,546.438287 2773.57717,520.983982 2755.47809,496.072735 C2423.67905,39.3905352 1784.48872,-61.8472685 1327.80652,269.951771 C898.98093,581.511797 783.559595,1164.10645 1045.78454,1612.1275 C1021.80966,1620.37708 998.200028,1629.41165 974.986359,1639.2005 L974.986196,1639.20057 C883.818119,1479.24841 831.733782,1294.1307 831.733782,1096.84804 C831.733782,491.075595 1322.80938,4.23985985e-11 1928.58182,4.2250227e-11 C2347.2598,4.21476805e-11 2711.14887,234.579232 2895.98743,579.476106 C2866.30418,575.935303 2836.26717,573.54665 2805.9224,572.356132 Z" id="Combined-Shape-Copy-868" fill="#FFFFFF"></path>
                <path d="M1658.9022,2025.33926 C1629.59544,2060.48253 1602.60323,2097.62342 1578.15975,2136.52774 C1553.63052,2128.26334 1529.48933,2119.15521 1505.77069,2109.23785 C1529.03285,2071.09557 1554.55818,2034.48475 1582.16011,1999.59198 C1607.40423,2009.25215 1633.00978,2017.83853 1658.90217,2025.33929 Z" id="Combined-Shape-Copy-869" fill="#FFFFFF"></path>
                <path d="M1163.62777,1688.11556 C1118.88175,1699.34153 1075.30623,1713.51733 1033.11992,1730.42424 C1018.54556,1709.86303 1004.66157,1688.77798 991.501736,1667.20287 C1032.35581,1650.11484 1074.46384,1635.42774 1117.64945,1623.31798 C1126.82188,1637.42035 1136.40797,1651.36239 1146.41006,1665.12909 C1152.0561,1672.9002 1157.79624,1680.56249 1163.62777,1688.11556 Z" id="Combined-Shape-Copy-870" fill="#FFFFFF"></path>
                <path d="M2950.29223,697.062226 C2901.73977,687.96535 2851.9776,682.301367 2801.26733,680.331872 C2789.02896,654.765123 2775.57714,629.56263 2760.89966,604.801429 C2813.01898,604.828588 2864.28815,608.490925 2914.46737,615.548636 C2927.47045,642.134014 2939.42985,669.323 2950.29221,697.062222 Z" id="Combined-Shape-Copy-871" fill="#FFFFFF"></path>
                <path d="M1993.9852,2191.77835 C2017.86765,2148.15635 2038.66117,2102.60213 2056.07153,2055.40993 C2084.2928,2051.68174 2112.42278,2046.69468 2140.37546,2040.43498 C2124.44148,2089.54932 2105.13653,2137.14489 2082.73357,2182.94873 C2053.5048,2187.05976 2023.90621,2190.01876 1993.9852,2191.77835 Z" id="Combined-Shape-Copy-872" fill="#FFFFFF"></path>
            </g>
        </g>
    </g>
</svg>