<?xml version="1.0" encoding="UTF-8"?>
<svg width="565px" height="40px" viewBox="0 0 565 40" version="1.1" xmlns="http://www.w3.org/2000/svg" xmlns:xlink="http://www.w3.org/1999/xlink">
    <title>1-Click Health powered by Verified / white and green</title>
    <g id="1-Click-Health-powered-by-Verified-/-white-and-green" stroke="none" fill="none" fill-rule="evenodd" stroke-width="1">
        <g id="powered-by" transform="translate(224.2304, 8.0628)" fill="#FFFFFF">
            <path d="M0,29.7824 L0,7.544 L1.7384,7.544 C2.15386667,7.544 2.41626667,7.74626667 2.5256,8.1508 L2.7716,10.1188 C3.48226667,9.25506667 4.29406667,8.5608 5.207,8.036 C6.11993333,7.5112 7.17226667,7.2488 8.364,7.2488 C9.3152,7.2488 10.1789333,7.43193333 10.9552,7.7982 C11.7314667,8.16446667 12.3929333,8.70566667 12.9396,9.4218 C13.4862667,10.1379333 13.9072,11.0262667 14.2024,12.0868 C14.4976,13.1473333 14.6452,14.3664 14.6452,15.744 C14.6452,16.9685333 14.4812,18.1083333 14.1532,19.1634 C13.8252,20.2184667 13.3550667,21.1314 12.7428,21.9022 C12.1305333,22.673 11.3788667,23.2798 10.4878,23.7226 C9.59673333,24.1654 8.5936,24.3868 7.4784,24.3868 C6.45066667,24.3868 5.57326667,24.2173333 4.8462,23.8784 C4.11913333,23.5394667 3.4768,23.0584 2.9192,22.4352 L2.9192,29.7824 L0,29.7824 Z M7.3964,9.6104 C6.4452,9.6104 5.61153333,9.82906667 4.8954,10.2664 C4.17926667,10.7037333 3.52053333,11.3214667 2.9192,12.1196 L2.9192,20.1556 C3.45493333,20.8772 4.0426,21.3856 4.6822,21.6808 C5.3218,21.976 6.0352,22.1236 6.8224,22.1236 C8.364,22.1236 9.55026667,21.5714667 10.3812,20.4672 C11.2121333,19.3629333 11.6276,17.7885333 11.6276,15.744 C11.6276,14.6616 11.5319333,13.7322667 11.3406,12.956 C11.1492667,12.1797333 10.8732,11.5428667 10.5124,11.0454 C10.1516,10.5479333 9.7088,10.1844 9.184,9.9548 C8.6592,9.7252 8.06333333,9.6104 7.3964,9.6104 Z" id="Shape" fill-rule="nonzero"></path>
            <path d="M24.8296,7.2816 C26.0432,7.2816 27.1392667,7.48386667 28.1178,7.8884 C29.0963333,8.29293333 29.9272667,8.86693333 30.6106,9.6104 C31.2939333,10.3538667 31.8187333,11.2531333 32.185,12.3082 C32.5512667,13.3632667 32.7344,14.5413333 32.7344,15.8424 C32.7344,17.1544 32.5512667,18.3352 32.185,19.3848 C31.8187333,20.4344 31.2939333,21.3309333 30.6106,22.0744 C29.9272667,22.8178667 29.0963333,23.3891333 28.1178,23.7882 C27.1392667,24.1872667 26.0432,24.3868 24.8296,24.3868 C23.616,24.3868 22.5199333,24.1872667 21.5414,23.7882 C20.5628667,23.3891333 19.7292,22.8178667 19.0404,22.0744 C18.3516,21.3309333 17.8213333,20.4344 17.4496,19.3848 C17.0778667,18.3352 16.892,17.1544 16.892,15.8424 C16.892,14.5413333 17.0778667,13.3632667 17.4496,12.3082 C17.8213333,11.2531333 18.3516,10.3538667 19.0404,9.6104 C19.7292,8.86693333 20.5628667,8.29293333 21.5414,7.8884 C22.5199333,7.48386667 23.616,7.2816 24.8296,7.2816 Z M24.8296,22.1072 C26.4696,22.1072 27.6941333,21.5578 28.5032,20.459 C29.3122667,19.3602 29.7168,17.8268 29.7168,15.8588 C29.7168,13.8798667 29.3122667,12.3382667 28.5032,11.234 C27.6941333,10.1297333 26.4696,9.5776 24.8296,9.5776 C23.9986667,9.5776 23.2770667,9.71973333 22.6648,10.004 C22.0525333,10.2882667 21.5414,10.6982667 21.1314,11.234 C20.7214,11.7697333 20.4152667,12.4284667 20.213,13.2102 C20.0107333,13.9919333 19.9096,14.8748 19.9096,15.8588 C19.9096,16.8428 20.0107333,17.7229333 20.213,18.4992 C20.4152667,19.2754667 20.7214,19.9287333 21.1314,20.459 C21.5414,20.9892667 22.0525333,21.3965333 22.6648,21.6808 C23.2770667,21.9650667 23.9986667,22.1072 24.8296,22.1072 Z" id="Shape" fill-rule="nonzero"></path>
            <path d="M34.1776,7.544 L36.4736,7.544 C36.7141333,7.544 36.9109333,7.60413333 37.064,7.7244 C37.2170667,7.84466667 37.3209333,7.9868 37.3756,8.1508 L40.5572,18.8436 C40.6446667,19.2372 40.7266667,19.6171333 40.8032,19.9834 C40.8797333,20.3496667 40.9453333,20.7186667 41,21.0904 C41.0874667,20.7186667 41.1858667,20.3496667 41.2952,19.9834 C41.4045333,19.6171333 41.5193333,19.2372 41.6396,18.8436 L45.1492,8.0852 C45.2038667,7.9212 45.2995333,7.78453333 45.4362,7.6752 C45.5728667,7.56586667 45.7450667,7.5112 45.9528,7.5112 L47.2156,7.5112 C47.4342667,7.5112 47.6146667,7.56586667 47.7568,7.6752 C47.8989333,7.78453333 47.9973333,7.9212 48.052,8.0852 L51.4796,18.8436 C51.5998667,19.2262667 51.7064667,19.6034667 51.7994,19.9752 C51.8923333,20.3469333 51.9825333,20.7132 52.07,21.074 C52.1246667,20.7132 52.1957333,20.336 52.2832,19.9424 C52.3706667,19.5488 52.4636,19.1825333 52.562,18.8436 L55.8092,8.1508 C55.8638667,7.97586667 55.9677333,7.831 56.1208,7.7162 C56.2738667,7.6014 56.4542667,7.544 56.662,7.544 L58.8596,7.544 L53.4804,24.1572 L51.168,24.1572 C50.8837333,24.1572 50.6869333,23.9713333 50.5776,23.5996 L46.904,12.3328 C46.8165333,12.0813333 46.7454667,11.8271333 46.6908,11.5702 C46.6361333,11.3132667 46.5814667,11.0590667 46.5268,10.8076 C46.4721333,11.0590667 46.4174667,11.316 46.3628,11.5784 C46.3081333,11.8408 46.2370667,12.0977333 46.1496,12.3492 L42.4268,23.5996 C42.3065333,23.9713333 42.0824,24.1572 41.7544,24.1572 L39.5568,24.1572 L34.1776,7.544 Z" id="Path" fill-rule="nonzero"></path>
            <path d="M68.0436,7.2816 C69.0385333,7.2816 69.9569333,7.44833333 70.7988,7.7818 C71.6406667,8.11526667 72.3677333,8.59633333 72.98,9.225 C73.5922667,9.85366667 74.0706,10.6299333 74.415,11.5538 C74.7594,12.4776667 74.9316,13.53 74.9316,14.7108 C74.9316,15.17 74.8824,15.4761333 74.784,15.6292 C74.6856,15.7822667 74.4997333,15.8588 74.2264,15.8588 L63.1728,15.8588 C63.1946667,16.9084 63.3368,17.8213333 63.5992,18.5976 C63.8616,19.3738667 64.2224,20.0216667 64.6816,20.541 C65.1408,21.0603333 65.6874667,21.4484667 66.3216,21.7054 C66.9557333,21.9623333 67.6664,22.0908 68.4536,22.0908 C69.1861333,22.0908 69.8175333,22.0060667 70.3478,21.8366 C70.8780667,21.6671333 71.3345333,21.484 71.7172,21.2872 C72.0998667,21.0904 72.4196667,20.9072667 72.6766,20.7378 C72.9335333,20.5683333 73.1549333,20.4836 73.3408,20.4836 C73.5813333,20.4836 73.7672,20.5765333 73.8984,20.7624 L74.7184,21.8284 C74.3576,22.2657333 73.9257333,22.6456667 73.4228,22.9682 C72.9198667,23.2907333 72.3814,23.5558667 71.8074,23.7636 C71.2334,23.9713333 70.6402667,24.1271333 70.028,24.231 C69.4157333,24.3348667 68.8089333,24.3868 68.2076,24.3868 C67.0596,24.3868 66.0018,24.1927333 65.0342,23.8046 C64.0666,23.4164667 63.2302,22.8479333 62.525,22.099 C61.8198,21.3500667 61.2704,20.4234667 60.8768,19.3192 C60.4832,18.2149333 60.2864,16.9466667 60.2864,15.5144 C60.2864,14.3554667 60.4640667,13.2730667 60.8194,12.2672 C61.1747333,11.2613333 61.6858667,10.3894 62.3528,9.6514 C63.0197333,8.9134 63.8342667,8.33393333 64.7964,7.913 C65.7585333,7.49206667 66.8409333,7.2816 68.0436,7.2816 Z M68.1092,9.43 C66.6988,9.43 65.5890667,9.83726667 64.78,10.6518 C63.9709333,11.4663333 63.468,12.5952 63.2712,14.0384 L72.3076,14.0384 C72.3076,13.3605333 72.2146667,12.7400667 72.0288,12.177 C71.8429333,11.6139333 71.5696,11.1274 71.2088,10.7174 C70.848,10.3074 70.4079333,9.99033333 69.8886,9.7662 C69.3692667,9.54206667 68.7761333,9.43 68.1092,9.43 Z" id="Shape" fill-rule="nonzero"></path>
            <path d="M78.6544,24.1572 L78.6544,7.544 L80.3272,7.544 C80.6442667,7.544 80.8629333,7.60413333 80.9832,7.7244 C81.1034667,7.84466667 81.1854667,8.0524 81.2292,8.3476 L81.426,10.9388 C81.9945333,9.77986667 82.697,8.87513333 83.5334,8.2246 C84.3698,7.57406667 85.3510667,7.2488 86.4772,7.2488 C86.9364,7.2488 87.3518667,7.30073333 87.7236,7.4046 C88.0953333,7.50846667 88.4397333,7.65333333 88.7568,7.8392 L88.3796,10.0204 C88.3030667,10.2937333 88.1336,10.4304 87.8712,10.4304 C87.7181333,10.4304 87.4830667,10.3784667 87.166,10.2746 C86.8489333,10.1707333 86.4061333,10.1188 85.8376,10.1188 C84.8208,10.1188 83.9707333,10.414 83.2874,11.0044 C82.6040667,11.5948 82.0328,12.4530667 81.5736,13.5792 L81.5736,24.1572 L78.6544,24.1572 Z" id="Path" fill-rule="nonzero"></path>
            <path d="M98.4492,7.2816 C99.4441333,7.2816 100.362533,7.44833333 101.2044,7.7818 C102.046267,8.11526667 102.773333,8.59633333 103.3856,9.225 C103.997867,9.85366667 104.4762,10.6299333 104.8206,11.5538 C105.165,12.4776667 105.3372,13.53 105.3372,14.7108 C105.3372,15.17 105.288,15.4761333 105.1896,15.6292 C105.0912,15.7822667 104.905333,15.8588 104.632,15.8588 L93.5784,15.8588 C93.6002667,16.9084 93.7424,17.8213333 94.0048,18.5976 C94.2672,19.3738667 94.628,20.0216667 95.0872,20.541 C95.5464,21.0603333 96.0930667,21.4484667 96.7272,21.7054 C97.3613333,21.9623333 98.072,22.0908 98.8592,22.0908 C99.5917333,22.0908 100.223133,22.0060667 100.7534,21.8366 C101.283667,21.6671333 101.740133,21.484 102.1228,21.2872 C102.505467,21.0904 102.825267,20.9072667 103.0822,20.7378 C103.339133,20.5683333 103.560533,20.4836 103.7464,20.4836 C103.986933,20.4836 104.1728,20.5765333 104.304,20.7624 L105.124,21.8284 C104.7632,22.2657333 104.331333,22.6456667 103.8284,22.9682 C103.325467,23.2907333 102.787,23.5558667 102.213,23.7636 C101.639,23.9713333 101.045867,24.1271333 100.4336,24.231 C99.8213333,24.3348667 99.2145333,24.3868 98.6132,24.3868 C97.4652,24.3868 96.4074,24.1927333 95.4398,23.8046 C94.4722,23.4164667 93.6358,22.8479333 92.9306,22.099 C92.2254,21.3500667 91.676,20.4234667 91.2824,19.3192 C90.8888,18.2149333 90.692,16.9466667 90.692,15.5144 C90.692,14.3554667 90.8696667,13.2730667 91.225,12.2672 C91.5803333,11.2613333 92.0914667,10.3894 92.7584,9.6514 C93.4253333,8.9134 94.2398667,8.33393333 95.202,7.913 C96.1641333,7.49206667 97.2465333,7.2816 98.4492,7.2816 Z M98.5148,9.43 C97.1044,9.43 95.9946667,9.83726667 95.1856,10.6518 C94.3765333,11.4663333 93.8736,12.5952 93.6768,14.0384 L102.7132,14.0384 C102.7132,13.3605333 102.620267,12.7400667 102.4344,12.177 C102.248533,11.6139333 101.9752,11.1274 101.6144,10.7174 C101.2536,10.3074 100.813533,9.99033333 100.2942,9.7662 C99.7748667,9.54206667 99.1817333,9.43 98.5148,9.43 Z" id="Shape" fill-rule="nonzero"></path>
            <path d="M120.7532,24.1572 C120.337733,24.1572 120.075333,23.9549333 119.966,23.5504 L119.7036,21.5332 C118.992933,22.3969333 118.181133,23.0884667 117.2682,23.6078 C116.355267,24.1271333 115.3084,24.3868 114.1276,24.3868 C113.1764,24.3868 112.312667,24.2036667 111.5364,23.8374 C110.760133,23.4711333 110.098667,22.9326667 109.552,22.222 C109.005333,21.5113333 108.5844,20.6257333 108.2892,19.5652 C107.994,18.5046667 107.8464,17.2856 107.8464,15.908 C107.8464,14.6834667 108.0104,13.5436667 108.3384,12.4886 C108.6664,11.4335333 109.139267,10.5178667 109.757,9.7416 C110.374733,8.96533333 111.1264,8.3558 112.012,7.913 C112.8976,7.4702 113.903467,7.2488 115.0296,7.2488 C116.0464,7.2488 116.9156,7.421 117.6372,7.7654 C118.3588,8.1098 119.003867,8.5936 119.5724,9.2168 L119.5724,0 L122.4916,0 L122.4916,24.1572 L120.7532,24.1572 Z M115.0952,22.0252 C116.0464,22.0252 116.880067,21.8065333 117.5962,21.3692 C118.312333,20.9318667 118.971067,20.3141333 119.5724,19.516 L119.5724,11.48 C119.036667,10.7584 118.449,10.2527333 117.8094,9.963 C117.1698,9.67326667 116.461867,9.5284 115.6856,9.5284 C114.133067,9.5284 112.941333,10.0805333 112.1104,11.1848 C111.279467,12.2890667 110.864,13.8634667 110.864,15.908 C110.864,16.9904 110.956933,17.917 111.1428,18.6878 C111.328667,19.4586 111.602,20.0927333 111.9628,20.5902 C112.3236,21.0876667 112.7664,21.4512 113.2912,21.6808 C113.816,21.9104 114.417333,22.0252 115.0952,22.0252 Z" id="Shape" fill-rule="nonzero"></path>
            <path d="M133.824,24.1572 L133.824,0 L136.7596,0 L136.7596,9.9384 C137.4484,9.14026667 138.238333,8.49793333 139.1294,8.0114 C140.020467,7.52486667 141.04,7.2816 142.188,7.2816 C143.150133,7.2816 144.019333,7.462 144.7956,7.8228 C145.571867,8.1836 146.233333,8.72206667 146.78,9.4382 C147.326667,10.1543333 147.7476,11.0399333 148.0428,12.095 C148.338,13.1500667 148.4856,14.3664 148.4856,15.744 C148.4856,16.9685333 148.3216,18.1083333 147.9936,19.1634 C147.6656,20.2184667 147.192733,21.1314 146.575,21.9022 C145.957267,22.673 145.202867,23.2798 144.3118,23.7226 C143.420733,24.1654 142.4176,24.3868 141.3024,24.3868 C140.230933,24.3868 139.320733,24.1790667 138.5718,23.7636 C137.822867,23.3481333 137.1696,22.7686667 136.612,22.0252 L136.4644,23.534 C136.376933,23.9494667 136.125467,24.1572 135.71,24.1572 L133.824,24.1572 Z M141.2368,9.6104 C140.2856,9.6104 139.451933,9.82906667 138.7358,10.2664 C138.019667,10.7037333 137.360933,11.3214667 136.7596,12.1196 L136.7596,20.1556 C137.2844,20.8772 137.8666,21.3856 138.5062,21.6808 C139.1458,21.976 139.8592,22.1236 140.6464,22.1236 C142.198933,22.1236 143.390667,21.5714667 144.2216,20.4672 C145.052533,19.3629333 145.468,17.7885333 145.468,15.744 C145.468,14.6616 145.372333,13.7322667 145.181,12.956 C144.989667,12.1797333 144.7136,11.5428667 144.3528,11.0454 C143.992,10.5479333 143.5492,10.1844 143.0244,9.9548 C142.4996,9.7252 141.903733,9.6104 141.2368,9.6104 Z" id="Shape" fill-rule="nonzero"></path>
            <path d="M156.9316,29.0608 C156.8332,29.2794667 156.7102,29.4544 156.5626,29.5856 C156.415,29.7168 156.188133,29.7824 155.882,29.7824 L153.7172,29.7824 L156.7512,23.1896 L149.896,7.544 L152.4216,7.544 C152.673067,7.544 152.869867,7.60686667 153.012,7.7326 C153.154133,7.85833333 153.258,7.99773333 153.3236,8.1508 L157.768,18.614 C157.8664,18.8545333 157.951133,19.0950667 158.0222,19.3356 C158.093267,19.5761333 158.156133,19.8221333 158.2108,20.0736 C158.287333,19.8221333 158.363867,19.5761333 158.4404,19.3356 C158.516933,19.0950667 158.6044,18.8490667 158.7028,18.5976 L163.016,8.1508 C163.0816,7.97586667 163.193667,7.831 163.3522,7.7162 C163.510733,7.6014 163.682933,7.544 163.8688,7.544 L166.1976,7.544 L156.9316,29.0608 Z" id="Path" fill-rule="nonzero"></path>
        </g>
        <g id="Clear-Check" transform="translate(400.7632, 0)" fill="#0DBC3D">
            <g id="Check-Mark" fill-rule="nonzero">
                <path d="M20,0 C22.8775524,0 25.3866591,1.57749004 26.7097089,3.91485589 C29.277129,3.23312318 32.1283453,3.89911052 34.1421408,5.91290587 C36.1629837,7.93374843 36.8265687,10.7978829 36.1328957,13.3725495 C38.4440433,14.7027623 40,17.1971946 40,20.0550415 C40,22.9128883 38.4440433,25.4073207 36.1330532,26.7374037 C36.8265687,29.3122 36.1629837,32.1763345 34.1421408,34.197177 C32.1140914,36.2252261 29.236725,36.88632 26.6549629,36.1804587 C25.3180975,38.465278 22.8382771,40 20,40 C17.161729,40 14.6819086,38.465278 13.3451324,36.1804247 C10.763281,36.88632 7.88591456,36.2252261 5.85786526,34.197177 C3.8370224,32.1763345 3.17343748,29.3122 3.86711049,26.7375334 C1.55596266,25.4073207 -1.79032289e-30,22.9128883 -1.79032289e-30,20.0550415 C-1.79032289e-30,17.1971946 1.55596266,14.7027623 3.86695307,13.3726792 C3.17343748,10.7978829 3.8370224,7.93374843 5.85786526,5.91290587 C7.87166091,3.89911052 10.7228772,3.23312318 13.2905638,3.9149438 C14.613347,1.57749004 17.1224537,0 20,0 Z M27.3993208,12.7535335 L27.3443496,12.7538931 C26.6560875,12.7706021 26.0850462,13.0058668 25.6312259,13.4596871 L17.5545331,21.5358835 L14.3687802,18.3502582 C13.903627,17.8851051 13.3336509,17.6509056 12.6588519,17.6476597 C12.2232734,17.6290372 11.4939431,17.8149346 10.9580107,18.3508669 C10.3905226,18.9183549 10.2417159,19.6639941 10.2530964,20.0534148 C10.2682705,20.7362429 10.5034448,21.3052442 10.9586193,21.7604186 L15.8491912,26.6509898 C16.1674948,26.9692933 16.5445846,27.1806052 16.9805877,27.2849639 C17.1769445,27.335022 17.3560938,27.3557677 17.4976856,27.3570447 L17.5593907,27.359708 C17.7088057,27.3624082 17.899471,27.3423152 18.1078328,27.2902681 C18.5502913,27.1898974 18.934428,26.9768047 19.260243,26.6509898 L29.0413868,16.8698475 C29.4930754,16.418159 29.7293149,15.8480926 29.750105,15.1596483 C29.7576303,14.7432325 29.5881166,14.0064168 29.0423485,13.4606488 C28.5009564,12.9192568 27.7922385,12.7444553 27.3443496,12.7538931 L27.3993208,12.7535335 Z" id="Combined-Shape"></path>
            </g>
            <g id="Verified-(outlines,-replaced,-modified,-green)" transform="translate(44.596, 7.5177)" fill-rule="nonzero">
                <path d="M0,0.756879433 L4.47546167,0.756879433 C4.95810949,0.756879433 5.35300317,0.866572105 5.66014271,1.08595745 C5.96728224,1.30534279 6.18666761,1.59602837 6.31829883,1.95801418 L10.9582995,14.7920567 C11.1667157,15.3514894 11.3778741,15.9602837 11.5917748,16.6184397 C11.8056756,17.2765957 12.0058647,17.9676596 12.1923423,18.6916312 C12.345912,17.9676596 12.5241627,17.2765957 12.7270941,16.6184397 C12.9300256,15.9602837 13.1302148,15.3514894 13.3276616,14.7920567 L17.9347545,1.95801418 C18.0444472,1.6508747 18.2583479,1.37390071 18.5764567,1.1270922 C18.8945655,0.880283688 19.2839746,0.756879433 19.7446839,0.756879433 L24.2530533,0.756879433 L14.6439739,24.7302128 L9.60907948,24.7302128 L0,0.756879433 Z" id="Path"></path>
                <path d="M31.3940473,7.40425532 C32.5238821,7.40425532 33.5577356,7.5797636 34.4956081,7.93078014 C35.4334806,8.28179668 36.2397218,8.7918676 36.9143319,9.46099291 C37.5889419,10.1301182 38.1154668,10.9500709 38.4939066,11.9208511 C38.8723463,12.8916312 39.0615662,13.9913002 39.0615662,15.2198582 C39.0615662,15.6037825 39.0451123,15.9164066 39.0122045,16.1577305 C38.9792967,16.3990544 38.9189656,16.5910165 38.8312116,16.733617 C38.7434575,16.8762175 38.6255378,16.9749409 38.4774527,17.0297872 C38.3293675,17.0846336 38.1401476,17.1120567 37.909793,17.1120567 L28.0703589,17.1120567 C28.2348979,18.5380615 28.6681839,19.5719149 29.3702172,20.213617 C30.0722505,20.8553191 30.9772152,21.1761702 32.0851113,21.1761702 C32.6774518,21.1761702 33.1875228,21.10487 33.6153243,20.9622695 C34.0431257,20.819669 34.4243079,20.6606147 34.7588705,20.4851064 C35.0934331,20.3095981 35.4005728,20.1505437 35.6802891,20.0079433 C35.9600055,19.8653428 36.2534333,19.7940426 36.5605729,19.7940426 C36.966436,19.7940426 37.2735753,19.9421277 37.4819915,20.2382979 L38.9628428,22.0646809 C38.4363179,22.6679906 37.8686582,23.1588652 37.2598638,23.537305 C36.6510694,23.9157447 36.0258211,24.2119149 35.3841189,24.4258156 C34.7424166,24.6397163 34.1007144,24.7878014 33.4590122,24.8700709 C32.81731,24.9523404 32.2057731,24.9934752 31.624402,24.9934752 C30.4287516,24.9934752 29.307144,24.7987707 28.2595788,24.4093617 C27.2120136,24.0199527 26.2960797,23.4413239 25.5117769,22.6734752 C24.7274742,21.9056265 24.1077105,20.9513002 23.6524859,19.8104965 C23.1972612,18.6696927 22.9696489,17.3424113 22.9696489,15.8286525 C22.9696489,14.6878487 23.1643534,13.6073759 23.5537624,12.587234 C23.9431715,11.5670922 24.5026042,10.6730969 25.2320606,9.90524823 C25.9615169,9.13739952 26.8445431,8.52860519 27.881139,8.07886525 C28.9177349,7.6291253 30.0887044,7.40425532 31.3940473,7.40425532 Z M31.4927707,10.9253901 C30.5165059,10.9253901 29.7541415,11.2023641 29.2056782,11.7563121 C28.6572149,12.3102601 28.2952289,13.1082742 28.1197206,14.1503546 L34.4873811,14.1503546 C34.4873811,13.7444917 34.435277,13.3495981 34.3310691,12.9656738 C34.2268611,12.5817494 34.0568372,12.2389598 33.8209981,11.937305 C33.5851589,11.6356501 33.2752768,11.3915839 32.8913525,11.2051064 C32.5074282,11.0186289 32.0412341,10.9253901 31.4927707,10.9253901 Z" id="Shape"></path>
                <path d="M41.990361,24.7302128 L41.990361,7.66751773 L45.0178792,7.66751773 C45.2701723,7.66751773 45.4813309,7.68945626 45.6513545,7.73333333 C45.821378,7.77721041 45.9639786,7.84576831 46.0791559,7.93900709 C46.1943333,8.03224587 46.2820873,8.15565013 46.3424184,8.30921986 C46.4027495,8.46278959 46.4548533,8.64926715 46.4987305,8.86865248 L46.7784468,10.4646809 C47.4036952,9.49938533 48.1057285,8.73702128 48.8845464,8.17758865 C49.6633644,7.61815603 50.5134829,7.33843972 51.4349014,7.33843972 C52.2137194,7.33843972 52.8389678,7.52491725 53.3106464,7.89787234 L52.6524903,11.6493617 C52.6086131,11.8797163 52.5208591,12.041513 52.3892278,12.1347518 C52.2575966,12.2279906 52.0820882,12.2746099 51.8627029,12.2746099 C51.6762255,12.2746099 51.4568399,12.2499291 51.2045468,12.2005674 C50.9522537,12.1512057 50.6341447,12.1265248 50.2502204,12.1265248 C48.9119697,12.1265248 47.8589199,12.8395272 47.091071,14.2655319 L47.091071,24.7302128 L41.990361,24.7302128 Z" id="Path"></path>
                <path d="M60.8465341,7.66751773 L60.8465341,24.7302128 L55.7458241,24.7302128 L55.7458241,7.66751773 L60.8465341,7.66751773 Z M61.4388746,2.99460993 C61.4388746,3.40047282 61.3566051,3.78165484 61.192066,4.13815603 C61.027527,4.49465722 60.8026569,4.80728133 60.517456,5.07602837 C60.2322551,5.3447754 59.9004346,5.55867611 59.5219949,5.7177305 C59.1435551,5.87678488 58.7404345,5.95631206 58.312633,5.95631206 C57.8958009,5.95631206 57.5063917,5.87678488 57.1444059,5.7177305 C56.78242,5.55867611 56.4615689,5.3447754 56.1818525,5.07602837 C55.9021362,4.80728133 55.6827509,4.49465722 55.5236964,4.13815603 C55.3646419,3.78165484 55.2851148,3.40047282 55.2851148,2.99460993 C55.2851148,2.57777778 55.3646419,2.18836879 55.5236964,1.82638298 C55.6827509,1.46439716 55.9021362,1.14628842 56.1818525,0.872056738 C56.4615689,0.597825058 56.78242,0.383924349 57.1444059,0.23035461 C57.5063917,0.0767848701 57.8958009,0 58.312633,0 C58.7404345,0 59.1435551,0.0767848701 59.5219949,0.23035461 C59.9004346,0.383924349 60.2322551,0.597825058 60.517456,0.872056738 C60.8026569,1.14628842 61.027527,1.46439716 61.192066,1.82638298 C61.3566051,2.18836879 61.4388746,2.57777778 61.4388746,2.99460993 Z" id="Shape"></path>
                <path d="M93.7370602,7.40425532 C94.866895,7.40425532 95.9007485,7.5797636 96.838621,7.93078014 C97.7764935,8.28179668 98.5827347,8.7918676 99.2573447,9.46099291 C99.9319548,10.1301182 100.45848,10.9500709 100.836919,11.9208511 C101.215359,12.8916312 101.404579,13.9913002 101.404579,15.2198582 C101.404579,15.6037825 101.388125,15.9164066 101.355217,16.1577305 C101.32231,16.3990544 101.261979,16.5910165 101.174224,16.733617 C101.08647,16.8762175 100.968551,16.9749409 100.820466,17.0297872 C100.67238,17.0846336 100.483161,17.1120567 100.252806,17.1120567 L90.4133718,17.1120567 C90.5779108,18.5380615 91.0111971,19.5719149 91.7132301,20.213617 C92.4152634,20.8553191 93.3202281,21.1761702 94.4281242,21.1761702 C95.0204647,21.1761702 95.5305357,21.10487 95.9583372,20.9622695 C96.3861386,20.819669 96.7673208,20.6606147 97.1018834,20.4851064 C97.4364463,20.3095981 97.7435857,20.1505437 98.023302,20.0079433 C98.3030184,19.8653428 98.5964465,19.7940426 98.9035858,19.7940426 C99.3094489,19.7940426 99.6165885,19.9421277 99.8250044,20.2382979 L101.305856,22.0646809 C100.779331,22.6679906 100.211671,23.1588652 99.6028767,23.537305 C98.9940823,23.9157447 98.368834,24.2119149 97.7271317,24.4258156 C97.0854295,24.6397163 96.4437273,24.7878014 95.8020251,24.8700709 C95.1603228,24.9523404 94.5487863,24.9934752 93.9674149,24.9934752 C92.7717648,24.9934752 91.6501569,24.7987707 90.6025917,24.4093617 C89.5550267,24.0199527 88.6390926,23.4413239 87.8547898,22.6734752 C87.0704873,21.9056265 86.4507235,20.9513002 85.9954988,19.8104965 C85.5402743,18.6696927 85.3126618,17.3424113 85.3126618,15.8286525 C85.3126618,14.6878487 85.5073665,13.6073759 85.8967753,12.587234 C86.2861845,11.5670922 86.8456172,10.6730969 87.5750735,9.90524823 C88.30453,9.13739952 89.187556,8.52860519 90.2241519,8.07886525 C91.2607478,7.6291253 92.4317173,7.40425532 93.7370602,7.40425532 Z M93.8357836,10.9253901 C92.8595188,10.9253901 92.0971547,11.2023641 91.5486911,11.7563121 C91.0002277,12.3102601 90.6382419,13.1082742 90.4627335,14.1503546 L96.830394,14.1503546 C96.830394,13.7444917 96.7782902,13.3495981 96.6740819,12.9656738 C96.569874,12.5817494 96.3998504,12.2389598 96.1640109,11.937305 C95.9281718,11.6356501 95.61829,11.3915839 95.2343654,11.2051064 C94.8504411,11.0186289 94.3842473,10.9253901 93.8357836,10.9253901 Z" id="Shape"></path>
                <path d="M116.311815,24.7302128 C115.993707,24.7302128 115.727702,24.6589125 115.513801,24.5163121 C115.2999,24.3737116 115.149073,24.1598109 115.061319,23.8746099 L114.666425,22.5747518 C114.326378,22.9367376 113.969877,23.2658156 113.596921,23.5619858 C113.223966,23.858156 112.820846,24.1131915 112.38756,24.3270922 C111.954273,24.5409929 111.48808,24.7055319 110.988978,24.8207092 C110.489876,24.9358865 109.94964,24.9934752 109.368268,24.9934752 C108.479757,24.9934752 107.657062,24.7960284 106.900183,24.4011348 C106.143303,24.0062411 105.490632,23.4358392 104.942168,22.6899291 C104.393705,21.9440189 103.963161,21.0308274 103.650537,19.9503546 C103.337913,18.8698818 103.181601,17.6385816 103.181601,16.2564539 C103.181601,14.9840189 103.357109,13.8020804 103.708126,12.7106383 C104.059142,11.6191962 104.555502,10.6758392 105.197204,9.88056738 C105.838906,9.08529552 106.609497,8.46278959 107.508977,8.01304965 C108.408457,7.5633097 109.401176,7.33843972 110.487134,7.33843972 C111.364675,7.33843972 112.107843,7.4673286 112.716638,7.72510638 C113.325432,7.98288417 113.876638,8.32018913 114.370255,8.73702128 L114.370255,0.0987234043 L119.470965,0.0987234043 L119.470965,24.7302128 L116.311815,24.7302128 Z M111.14529,21.0774468 C111.518245,21.0774468 111.85555,21.0417967 112.157205,20.9704965 C112.45886,20.8991962 112.735834,20.7977305 112.988127,20.6660993 C113.24042,20.5344681 113.479002,20.3699291 113.703872,20.1724823 C113.928742,19.9750355 114.15087,19.7446809 114.370255,19.4814184 L114.370255,12.2417021 C113.975361,11.8139007 113.555787,11.5149882 113.111531,11.3449645 C112.667276,11.1749409 112.19834,11.0899291 111.704723,11.0899291 C111.233044,11.0899291 110.799758,11.1831679 110.404864,11.3696454 C110.00997,11.5561229 109.667181,11.8550355 109.376495,12.266383 C109.08581,12.6777305 108.858197,13.2124823 108.693658,13.8706383 C108.529119,14.5287943 108.44685,15.3240662 108.44685,16.2564539 C108.44685,17.1559338 108.512665,17.9128132 108.644297,18.5270922 C108.775928,19.1413711 108.959663,19.6377305 109.195502,20.0161702 C109.431342,20.3946099 109.7138,20.6660993 110.042878,20.8306383 C110.371956,20.9951773 110.739427,21.0774468 111.14529,21.0774468 Z" id="Shape"></path>
                <path d="M65.7168894,24.7302128 L65.7168894,11.1721986 L64.598024,10.941844 C64.2140997,10.8540898 63.9042177,10.716974 63.6683785,10.5304965 C63.4325393,10.3440189 63.3146196,10.0697872 63.3146196,9.70780142 L63.3146196,7.70042553 L65.7168894,7.70042553 L65.7168894,6.72964539 C65.7168894,5.75338062 65.8732015,4.87035461 66.1858257,4.08056738 C66.4984498,3.29078014 66.9481898,2.61617021 67.5350457,2.05673759 C68.1219017,1.49730496 68.8376465,1.06401891 69.6822801,0.756879433 C70.5269137,0.449739952 71.4867249,0.296170213 72.5617132,0.296170213 C72.9785453,0.296170213 73.365212,0.320851064 73.7217133,0.370212766 C74.0782147,0.419574468 74.4484275,0.499101654 74.8323518,0.608794326 L74.7336284,3.09333333 C74.722659,3.26884162 74.6760397,3.4141844 74.5937702,3.5293617 C74.5115007,3.64453901 74.4100349,3.73777779 74.289373,3.80907801 C74.1687111,3.88037824 74.0343375,3.93248227 73.8862524,3.96539007 C73.7381672,3.99829787 73.5928245,4.01475177 73.4502239,4.01475177 C73.000484,4.01475177 72.6001055,4.05862885 72.249089,4.14638298 C71.8980725,4.23413711 71.6046444,4.39044916 71.3688052,4.61531915 C71.132966,4.84018913 70.9547152,5.13635935 70.8340533,5.50382979 C70.7133915,5.87130023 70.6530604,6.33475177 70.6530604,6.8941844 L70.6530604,7.70042553 L74.6678128,7.70042553 L74.6678128,11.1886525 L70.8175994,11.1886525 L70.8175994,24.7302128 L65.7168894,24.7302128 Z" id="Path"></path>
                <path d="M82.2475776,7.66751773 L82.2475776,24.7302128 L77.1468676,24.7302128 L77.1468676,7.66751773 L82.2475776,7.66751773 Z M82.8399181,2.99460993 C82.8399181,3.40047282 82.7576486,3.78165484 82.5931096,4.13815603 C82.4285706,4.49465722 82.2037005,4.80728133 81.9184996,5.07602837 C81.6332984,5.3447754 81.3014782,5.55867611 80.9230384,5.7177305 C80.5445986,5.87678488 80.141478,5.95631206 79.7136765,5.95631206 C79.2968441,5.95631206 78.9074353,5.87678488 78.5454494,5.7177305 C78.1834635,5.55867611 77.8626124,5.3447754 77.5828961,5.07602837 C77.3031797,4.80728133 77.0837941,4.49465722 76.9247399,4.13815603 C76.7656854,3.78165484 76.6861583,3.40047282 76.6861583,2.99460993 C76.6861583,2.57777778 76.7656854,2.18836879 76.9247399,1.82638298 C77.0837941,1.46439716 77.3031797,1.14628842 77.5828961,0.872056738 C77.8626124,0.597825058 78.1834635,0.383924349 78.5454494,0.23035461 C78.9074353,0.0767848701 79.2968441,0 79.7136765,0 C80.141478,0 80.5445986,0.0767848701 80.9230384,0.23035461 C81.3014782,0.383924349 81.6332984,0.597825058 81.9184996,0.872056738 C82.2037005,1.14628842 82.4285706,1.46439716 82.5931096,1.82638298 C82.7576486,2.18836879 82.8399181,2.57777778 82.8399181,2.99460993 Z" id="Shape"></path>
            </g>
        </g>
        <g id="1-Click-Health" transform="translate(-2.1648, 0.22)" fill="#FFFFFF">
            <path d="M4.1328,28.3264 L8.7248,28.3264 L8.7248,16.2724 C8.7248,15.682 8.7412,15.0642667 8.774,14.4192 L6.068,16.666 C5.89306667,16.8081333 5.71813333,16.9092667 5.5432,16.9694 C5.36826667,17.0295333 5.1988,17.0596 5.0348,17.0596 C4.75053333,17.0596 4.49633333,16.9967333 4.2722,16.871 C4.04806667,16.7452667 3.88133333,16.6113333 3.772,16.4692 L2.1648,14.3372 L9.6104,8.0888 L13.8088,8.0888 L13.8088,28.3264 L17.7448,28.3264 L17.7448,32 L4.1328,32 L4.1328,28.3264 Z" id="Path" fill-rule="nonzero"></path>
            <polygon id="Path" fill-rule="nonzero" points="20.664 19.9788 29.52 19.9788 29.52 24.0788 20.664 24.0788"></polygon>
            <path d="M49.1836,25.8172 C49.3148,25.8172 49.446,25.8418 49.5772,25.891 C49.7084,25.9402 49.8341333,26.0249333 49.9544,26.1452 L52.152,28.4576 C51.1898667,29.7149333 49.9844667,30.6634 48.5358,31.303 C47.0871333,31.9426 45.3733333,32.2624 43.3944,32.2624 C41.5794667,32.2624 39.9531333,31.9535333 38.5154,31.3358 C37.0776667,30.7180667 35.8586,29.8652667 34.8582,28.7774 C33.8578,27.6895333 33.0897333,26.3994 32.554,24.907 C32.0182667,23.4146 31.7504,21.7937333 31.7504,20.0444 C31.7504,18.2622667 32.0565333,16.625 32.6688,15.1326 C33.2810667,13.6402 34.1366,12.3528 35.2354,11.2704 C36.3342,10.188 37.6489333,9.34613333 39.1796,8.7448 C40.7102667,8.14346667 42.3994667,7.8428 44.2472,7.8428 C45.1437333,7.8428 45.9883333,7.92206667 46.781,8.0806 C47.5736667,8.23913333 48.3144,8.4578 49.0032,8.7366 C49.692,9.0154 50.3261333,9.34886667 50.9056,9.737 C51.4850667,10.1251333 51.9989333,10.5542667 52.4472,11.0244 L50.5776,13.5336 C50.4573333,13.6866667 50.3152,13.8260667 50.1512,13.9518 C49.9872,14.0775333 49.7576,14.1404 49.4624,14.1404 C49.2656,14.1404 49.0797333,14.0966667 48.9048,14.0092 C48.7298667,13.9217333 48.544,13.8151333 48.3472,13.6894 C48.1504,13.5636667 47.9344667,13.427 47.6994,13.2794 C47.4643333,13.1318 47.1855333,12.9951333 46.863,12.8694 C46.5404667,12.7436667 46.1632667,12.6370667 45.7314,12.5496 C45.2995333,12.4621333 44.7938667,12.4184 44.2144,12.4184 C43.2085333,12.4184 42.2901333,12.5960667 41.4592,12.9514 C40.6282667,13.3067333 39.9148667,13.8151333 39.319,14.4766 C38.7231333,15.1380667 38.2584667,15.9389333 37.925,16.8792 C37.5915333,17.8194667 37.4248,18.8745333 37.4248,20.0444 C37.4248,21.2689333 37.5915333,22.3568 37.925,23.308 C38.2584667,24.2592 38.7122,25.0600667 39.2862,25.7106 C39.8602,26.3611333 40.5298667,26.8558667 41.2952,27.1948 C42.0605333,27.5337333 42.8805333,27.7032 43.7552,27.7032 C44.2581333,27.7032 44.7173333,27.6786 45.1328,27.6294 C45.5482667,27.5802 45.9336667,27.4954667 46.289,27.3752 C46.6443333,27.2549333 46.9832667,27.0991333 47.3058,26.9078 C47.6283333,26.7164667 47.9536,26.4786667 48.2816,26.1944 C48.4128,26.0850667 48.5549333,25.9948667 48.708,25.9238 C48.8610667,25.8527333 49.0196,25.8172 49.1836,25.8172 Z" id="Path" fill-rule="nonzero"></path>
            <polygon id="Path" fill-rule="nonzero" points="59.9256 7.4492 59.9256 32 54.8416 32 54.8416 7.4492"></polygon>
            <path d="M69.2736,14.9932 L69.2736,32 L64.1896,32 L64.1896,14.9932 L69.2736,14.9932 Z M69.864,10.3356 C69.864,10.7401333 69.782,11.1200667 69.618,11.4754 C69.454,11.8307333 69.2298667,12.1423333 68.9456,12.4102 C68.6613333,12.6780667 68.3306,12.8912667 67.9534,13.0498 C67.5762,13.2083333 67.1744,13.2876 66.748,13.2876 C66.3325333,13.2876 65.9444,13.2083333 65.5836,13.0498 C65.2228,12.8912667 64.903,12.6780667 64.6242,12.4102 C64.3454,12.1423333 64.1267333,11.8307333 63.9682,11.4754 C63.8096667,11.1200667 63.7304,10.7401333 63.7304,10.3356 C63.7304,9.92013333 63.8096667,9.532 63.9682,9.1712 C64.1267333,8.8104 64.3454,8.49333333 64.6242,8.22 C64.903,7.94666667 65.2228,7.73346667 65.5836,7.5804 C65.9444,7.42733333 66.3325333,7.3508 66.748,7.3508 C67.1744,7.3508 67.5762,7.42733333 67.9534,7.5804 C68.3306,7.73346667 68.6613333,7.94666667 68.9456,8.22 C69.2298667,8.49333333 69.454,8.8104 69.618,9.1712 C69.782,9.532 69.864,9.92013333 69.864,10.3356 Z" id="Shape" fill-rule="nonzero"></path>
            <path d="M85.6408,19.0276 C85.4877333,19.2134667 85.3401333,19.3610667 85.198,19.4704 C85.0558667,19.5797333 84.8536,19.6344 84.5912,19.6344 C84.3397333,19.6344 84.1128667,19.5742667 83.9106,19.454 C83.7083333,19.3337333 83.4814667,19.1998 83.23,19.0522 C82.9785333,18.9046 82.6833333,18.7706667 82.3444,18.6504 C82.0054667,18.5301333 81.5845333,18.47 81.0816,18.47 C80.4584,18.47 79.9199333,18.5848 79.4662,18.8144 C79.0124667,19.044 78.638,19.372 78.3428,19.7984 C78.0476,20.2248 77.8289333,20.7468667 77.6868,21.3646 C77.5446667,21.9823333 77.4736,22.6793333 77.4736,23.4556 C77.4736,25.0846667 77.7879333,26.3365333 78.4166,27.2112 C79.0452667,28.0858667 79.9117333,28.5232 81.016,28.5232 C81.6064,28.5232 82.0738,28.4494 82.4182,28.3018 C82.7626,28.1542 83.0550667,27.9902 83.2956,27.8098 C83.5361333,27.6294 83.7575333,27.4626667 83.9598,27.3096 C84.1620667,27.1565333 84.4162667,27.08 84.7224,27.08 C85.1269333,27.08 85.4330667,27.2276 85.6408,27.5228 L87.1168,29.3432 C86.592,29.9445333 86.0398667,30.4338 85.4604,30.811 C84.8809333,31.1882 84.2878,31.4834 83.681,31.6966 C83.0742,31.9098 82.4646667,32.0574 81.8524,32.1394 C81.2401333,32.2214 80.6442667,32.2624 80.0648,32.2624 C79.0261333,32.2624 78.0339333,32.0656 77.0882,31.672 C76.1424667,31.2784 75.3115333,30.7071333 74.5954,29.9582 C73.8792667,29.2092667 73.3107333,28.2881333 72.8898,27.1948 C72.4688667,26.1014667 72.2584,24.8550667 72.2584,23.4556 C72.2584,22.2310667 72.4415333,21.0858 72.8078,20.0198 C73.1740667,18.9538 73.7152667,18.0299333 74.4314,17.2482 C75.1475333,16.4664667 76.0331333,15.8514667 77.0882,15.4032 C78.1432667,14.9549333 79.3650667,14.7308 80.7536,14.7308 C82.0874667,14.7308 83.2573333,14.944 84.2632,15.3704 C85.2690667,15.7968 86.1765333,16.42 86.9856,17.24 L85.6408,19.0276 Z" id="Path" fill-rule="nonzero"></path>
            <path d="M94.3984,7.4492 L94.3984,21.2088 L95.1528,21.2088 C95.4698667,21.2088 95.7131333,21.1650667 95.8826,21.0776 C96.0520667,20.9901333 96.2133333,20.8316 96.3664,20.602 L99.5808,15.8132 C99.7666667,15.5289333 99.9880667,15.3212 100.245,15.19 C100.501933,15.0588 100.8272,14.9932 101.2208,14.9932 L105.8784,14.9932 L101.4832,21.0448 C101.275467,21.3290667 101.0486,21.5805333 100.8026,21.7992 C100.5566,22.0178667 100.291467,22.2146667 100.0072,22.3896 C100.4992,22.7613333 100.9256,23.2533333 101.2864,23.8656 L106.0752,32 L101.4832,32 C101.100533,32 100.7698,31.9371333 100.491,31.8114 C100.2122,31.6856667 99.9853333,31.4642667 99.8104,31.1472 L96.596,25.1284 C96.4429333,24.8550667 96.2844,24.6774 96.1204,24.5954 C95.9564,24.5134 95.7104,24.4724 95.3824,24.4724 L94.3984,24.4724 L94.3984,32 L89.3144,32 L89.3144,7.4492 L94.3984,7.4492 Z" id="Path" fill-rule="nonzero"></path>
            <polygon id="Path" fill-rule="nonzero" points="135.3984 32 129.8224 32 129.8224 21.8976 120.1136 21.8976 120.1136 32 114.5376 32 114.5376 8.1052 120.1136 8.1052 120.1136 18.0928 129.8224 18.0928 129.8224 8.1052 135.3984 8.1052"></polygon>
            <path d="M146.616,14.7308 C147.742133,14.7308 148.7726,14.9057333 149.7074,15.2556 C150.6422,15.6054667 151.4458,16.1138667 152.1182,16.7808 C152.7906,17.4477333 153.3154,18.265 153.6926,19.2326 C154.0698,20.2002 154.2584,21.2962667 154.2584,22.5208 C154.2584,22.9034667 154.242,23.2150667 154.2092,23.4556 C154.1764,23.6961333 154.116267,23.8874667 154.0288,24.0296 C153.941333,24.1717333 153.8238,24.2701333 153.6762,24.3248 C153.5286,24.3794667 153.34,24.4068 153.1104,24.4068 L143.3032,24.4068 C143.4672,25.8281333 143.899067,26.8586 144.5988,27.4982 C145.298533,28.1378 146.200533,28.4576 147.3048,28.4576 C147.8952,28.4576 148.4036,28.3865333 148.83,28.2444 C149.2564,28.1022667 149.636333,27.9437333 149.9698,27.7688 C150.303267,27.5938667 150.6094,27.4353333 150.8882,27.2932 C151.167,27.1510667 151.459467,27.08 151.7656,27.08 C152.170133,27.08 152.476267,27.2276 152.684,27.5228 L154.16,29.3432 C153.6352,29.9445333 153.0694,30.4338 152.4626,30.811 C151.8558,31.1882 151.2326,31.4834 150.593,31.6966 C149.9534,31.9098 149.3138,32.0574 148.6742,32.1394 C148.0346,32.2214 147.425067,32.2624 146.8456,32.2624 C145.653867,32.2624 144.535933,32.0683333 143.4918,31.6802 C142.447667,31.2920667 141.534733,30.7153333 140.753,29.95 C139.971267,29.1846667 139.353533,28.2334667 138.8998,27.0964 C138.446067,25.9593333 138.2192,24.6364 138.2192,23.1276 C138.2192,21.9905333 138.413267,20.9136 138.8014,19.8968 C139.189533,18.88 139.747133,17.9889333 140.4742,17.2236 C141.201267,16.4582667 142.0814,15.8514667 143.1146,15.4032 C144.1478,14.9549333 145.314933,14.7308 146.616,14.7308 Z M146.7144,18.2404 C145.741333,18.2404 144.981467,18.5164667 144.4348,19.0686 C143.888133,19.6207333 143.527333,20.4161333 143.3524,21.4548 L149.6992,21.4548 C149.6992,21.0502667 149.647267,20.6566667 149.5434,20.274 C149.439533,19.8913333 149.270067,19.5496667 149.035,19.249 C148.799933,18.9483333 148.491067,18.7050667 148.1084,18.5192 C147.725733,18.3333333 147.261067,18.2404 146.7144,18.2404 Z" id="Shape" fill-rule="nonzero"></path>
            <path d="M168.92,32 C168.438933,32 168.0754,31.9344 167.8294,31.8032 C167.5834,31.672 167.3784,31.3986667 167.2144,30.9832 L166.8536,30.0484 C166.4272,30.4092 166.0172,30.7262667 165.6236,30.9996 C165.23,31.2729333 164.822733,31.5052667 164.4018,31.6966 C163.980867,31.8879333 163.5326,32.0300667 163.057,32.123 C162.5814,32.2159333 162.053867,32.2624 161.4744,32.2624 C160.698133,32.2624 159.992933,32.1612667 159.3588,31.959 C158.724667,31.7567333 158.1862,31.4588 157.7434,31.0652 C157.3006,30.6716 156.958933,30.1823333 156.7184,29.5974 C156.477867,29.0124667 156.3576,28.3373333 156.3576,27.572 C156.3576,26.9706667 156.510667,26.3529333 156.8168,25.7188 C157.122933,25.0846667 157.6532,24.5079333 158.4076,23.9886 C159.162,23.4692667 160.1788,23.0346667 161.458,22.6848 C162.7372,22.3349333 164.349867,22.1381333 166.296,22.0944 L166.296,21.3728 C166.296,20.3778667 166.091,19.659 165.681,19.2162 C165.271,18.7734 164.6888,18.552 163.9344,18.552 C163.333067,18.552 162.841067,18.6176 162.4584,18.7488 C162.075733,18.88 161.734067,19.0276 161.4334,19.1916 C161.132733,19.3556 160.840267,19.5032 160.556,19.6344 C160.271733,19.7656 159.9328,19.8312 159.5392,19.8312 C159.189333,19.8312 158.8914,19.7464667 158.6454,19.577 C158.3994,19.4075333 158.205333,19.1970667 158.0632,18.9456 L157.1448,17.3548 C158.172533,16.4473333 159.312333,15.7722 160.5642,15.3294 C161.816067,14.8866 163.158133,14.6652 164.5904,14.6652 C165.618133,14.6652 166.544733,14.8319333 167.3702,15.1654 C168.195667,15.4988667 168.8954,15.9635333 169.4694,16.5594 C170.0434,17.1552667 170.483467,17.8632 170.7896,18.6832 C171.095733,19.5032 171.2488,20.3997333 171.2488,21.3728 L171.2488,32 L168.92,32 Z M163.0816,28.9004 C163.7376,28.9004 164.3116,28.7856 164.8036,28.556 C165.2956,28.3264 165.793067,27.9546667 166.296,27.4408 L166.296,25.0792 C165.2792,25.1229333 164.4428,25.2104 163.7868,25.3416 C163.1308,25.4728 162.611467,25.6368 162.2288,25.8336 C161.846133,26.0304 161.581,26.2545333 161.4334,26.506 C161.2858,26.7574667 161.212,27.0308 161.212,27.326 C161.212,27.9054667 161.370533,28.3127333 161.6876,28.5478 C162.004667,28.7828667 162.469333,28.9004 163.0816,28.9004 Z" id="Shape" fill-rule="nonzero"></path>
            <polygon id="Path" fill-rule="nonzero" points="180.1048 7.4492 180.1048 32 175.0208 32 175.0208 7.4492"></polygon>
            <path d="M190.1744,32.2624 C189.365333,32.2624 188.651933,32.1448667 188.0342,31.9098 C187.416467,31.6747333 186.897133,31.3412667 186.4762,30.9094 C186.055267,30.4775333 185.735467,29.9554667 185.5168,29.3432 C185.298133,28.7309333 185.1888,28.0476 185.1888,27.2932 L185.1888,18.5028 L183.7456,18.5028 C183.4832,18.5028 183.259067,18.4180667 183.0732,18.2486 C182.887333,18.0791333 182.7944,17.8304 182.7944,17.5024 L182.7944,15.518 L185.5004,14.9932 L186.5008,10.844 C186.632,10.3192 187.003733,10.0568 187.616,10.0568 L190.2728,10.0568 L190.2728,15.026 L194.4056,15.026 L194.4056,18.5028 L190.2728,18.5028 L190.2728,26.9488 C190.2728,27.3424 190.368467,27.6676667 190.5598,27.9246 C190.751133,28.1815333 191.0272,28.31 191.388,28.31 C191.573867,28.31 191.729667,28.2908667 191.8554,28.2526 C191.981133,28.2143333 192.090467,28.1706 192.1834,28.1214 C192.276333,28.0722 192.3638,28.0284667 192.4458,27.9902 C192.5278,27.9519333 192.623467,27.9328 192.7328,27.9328 C192.885867,27.9328 193.008867,27.9683333 193.1018,28.0394 C193.194733,28.1104667 193.2904,28.2225333 193.3888,28.3756 L194.9304,30.7864 C194.2744,31.2784 193.5364,31.6474 192.7164,31.8934 C191.8964,32.1394 191.049067,32.2624 190.1744,32.2624 Z" id="Path" fill-rule="nonzero"></path>
            <path d="M197.3248,32 L197.3248,7.4492 L202.4088,7.4492 L202.4088,16.4856 C203.021067,15.9608 203.685267,15.5371333 204.4014,15.2146 C205.117533,14.8920667 205.973067,14.7308 206.968,14.7308 C207.897333,14.7308 208.720067,14.8920667 209.4362,15.2146 C210.152333,15.5371333 210.7564,15.9854 211.2484,16.5594 C211.7404,17.1334 212.112133,17.8167333 212.3636,18.6094 C212.615067,19.4020667 212.7408,20.2630667 212.7408,21.1924 L212.7408,32 L207.6568,32 L207.6568,21.1924 C207.6568,20.3614667 207.465467,19.7136667 207.0828,19.249 C206.700133,18.7843333 206.137067,18.552 205.3936,18.552 C204.836,18.552 204.3112,18.6722667 203.8192,18.9128 C203.3272,19.1533333 202.857067,19.4758667 202.4088,19.8804 L202.4088,32 L197.3248,32 Z" id="Path" fill-rule="nonzero"></path>
        </g>
    </g>
</svg>